<mxfile host="app.diagrams.net" modified="2024-05-14T13:30:14.407Z" agent="Mozilla/5.0 (Windows NT 10.0; Win64; x64) AppleWebKit/537.36 (KHTML, like Gecko) Chrome/124.0.0.0 Safari/537.36" etag="oTDIkb0lTVvIkQJ0nyT3" version="24.4.0" type="device">
  <diagram name="Trang-1" id="k0QBdkvIBoZn1rY3FH7z">
    <mxGraphModel dx="847" dy="1008" grid="1" gridSize="10" guides="1" tooltips="1" connect="1" arrows="1" fold="1" page="1" pageScale="1" pageWidth="827" pageHeight="1169" math="0" shadow="0">
      <root>
        <mxCell id="0" />
        <mxCell id="1" parent="0" />
        <mxCell id="Jjhn9JfKcR0v0ImLpHDr-1" value="ESP8266" style="rounded=0;whiteSpace=wrap;html=1;" vertex="1" parent="1">
          <mxGeometry x="200" y="160" width="160" height="120" as="geometry" />
        </mxCell>
        <mxCell id="Jjhn9JfKcR0v0ImLpHDr-2" value="ESP32" style="rounded=0;whiteSpace=wrap;html=1;" vertex="1" parent="1">
          <mxGeometry x="200" y="400" width="160" height="200" as="geometry" />
        </mxCell>
        <mxCell id="Jjhn9JfKcR0v0ImLpHDr-3" value="DHT11" style="rounded=0;whiteSpace=wrap;html=1;" vertex="1" parent="1">
          <mxGeometry x="200" y="80" width="40" height="40" as="geometry" />
        </mxCell>
        <mxCell id="Jjhn9JfKcR0v0ImLpHDr-4" value="OLED" style="rounded=0;whiteSpace=wrap;html=1;" vertex="1" parent="1">
          <mxGeometry x="320" y="80" width="40" height="40" as="geometry" />
        </mxCell>
        <mxCell id="Jjhn9JfKcR0v0ImLpHDr-5" value="BUTTON" style="rounded=0;whiteSpace=wrap;html=1;" vertex="1" parent="1">
          <mxGeometry x="40" y="160" width="80" height="40" as="geometry" />
        </mxCell>
        <mxCell id="Jjhn9JfKcR0v0ImLpHDr-8" value="RELAY" style="rounded=0;whiteSpace=wrap;html=1;" vertex="1" parent="1">
          <mxGeometry x="40" y="240" width="80" height="40" as="geometry" />
        </mxCell>
        <mxCell id="Jjhn9JfKcR0v0ImLpHDr-10" value="DHT11" style="rounded=0;whiteSpace=wrap;html=1;" vertex="1" parent="1">
          <mxGeometry x="200" y="320" width="40" height="40" as="geometry" />
        </mxCell>
        <mxCell id="Jjhn9JfKcR0v0ImLpHDr-11" value="OLED" style="rounded=0;whiteSpace=wrap;html=1;" vertex="1" parent="1">
          <mxGeometry x="320" y="640" width="40" height="40" as="geometry" />
        </mxCell>
        <mxCell id="Jjhn9JfKcR0v0ImLpHDr-12" value="BUTTON" style="rounded=0;whiteSpace=wrap;html=1;" vertex="1" parent="1">
          <mxGeometry x="40" y="400" width="80" height="40" as="geometry" />
        </mxCell>
        <mxCell id="Jjhn9JfKcR0v0ImLpHDr-13" value="RELAY" style="rounded=0;whiteSpace=wrap;html=1;" vertex="1" parent="1">
          <mxGeometry x="40" y="480" width="80" height="40" as="geometry" />
        </mxCell>
        <mxCell id="Jjhn9JfKcR0v0ImLpHDr-14" value="Light sensor" style="rounded=0;whiteSpace=wrap;html=1;" vertex="1" parent="1">
          <mxGeometry x="40" y="560" width="80" height="40" as="geometry" />
        </mxCell>
        <mxCell id="Jjhn9JfKcR0v0ImLpHDr-15" value="PIR" style="rounded=0;whiteSpace=wrap;html=1;" vertex="1" parent="1">
          <mxGeometry x="260" y="320" width="40" height="40" as="geometry" />
        </mxCell>
        <mxCell id="Jjhn9JfKcR0v0ImLpHDr-16" value="Buzzer" style="rounded=0;whiteSpace=wrap;html=1;" vertex="1" parent="1">
          <mxGeometry x="200" y="640" width="40" height="40" as="geometry" />
        </mxCell>
        <mxCell id="Jjhn9JfKcR0v0ImLpHDr-17" value="" style="endArrow=classic;html=1;rounded=0;" edge="1" parent="1">
          <mxGeometry width="50" height="50" relative="1" as="geometry">
            <mxPoint x="200" y="259.55" as="sourcePoint" />
            <mxPoint x="120" y="259.55" as="targetPoint" />
          </mxGeometry>
        </mxCell>
        <mxCell id="Jjhn9JfKcR0v0ImLpHDr-18" value="" style="endArrow=classic;html=1;rounded=0;" edge="1" parent="1">
          <mxGeometry width="50" height="50" relative="1" as="geometry">
            <mxPoint x="120" y="179.47" as="sourcePoint" />
            <mxPoint x="200" y="179.47" as="targetPoint" />
          </mxGeometry>
        </mxCell>
        <mxCell id="Jjhn9JfKcR0v0ImLpHDr-21" value="" style="endArrow=classic;html=1;rounded=0;" edge="1" parent="1">
          <mxGeometry width="50" height="50" relative="1" as="geometry">
            <mxPoint x="120" y="579.55" as="sourcePoint" />
            <mxPoint x="200" y="579.55" as="targetPoint" />
          </mxGeometry>
        </mxCell>
        <mxCell id="Jjhn9JfKcR0v0ImLpHDr-23" value="" style="endArrow=classic;html=1;rounded=0;" edge="1" parent="1">
          <mxGeometry width="50" height="50" relative="1" as="geometry">
            <mxPoint x="219.55" y="120" as="sourcePoint" />
            <mxPoint x="219.55" y="160" as="targetPoint" />
          </mxGeometry>
        </mxCell>
        <mxCell id="Jjhn9JfKcR0v0ImLpHDr-24" value="" style="endArrow=classic;html=1;rounded=0;" edge="1" parent="1">
          <mxGeometry width="50" height="50" relative="1" as="geometry">
            <mxPoint x="339.55" y="160" as="sourcePoint" />
            <mxPoint x="339.55" y="120" as="targetPoint" />
          </mxGeometry>
        </mxCell>
        <mxCell id="Jjhn9JfKcR0v0ImLpHDr-25" value="" style="endArrow=classic;html=1;rounded=0;" edge="1" parent="1">
          <mxGeometry width="50" height="50" relative="1" as="geometry">
            <mxPoint x="200" y="499.54999999999995" as="sourcePoint" />
            <mxPoint x="120" y="499.54999999999995" as="targetPoint" />
          </mxGeometry>
        </mxCell>
        <mxCell id="Jjhn9JfKcR0v0ImLpHDr-26" value="" style="endArrow=classic;html=1;rounded=0;" edge="1" parent="1">
          <mxGeometry width="50" height="50" relative="1" as="geometry">
            <mxPoint x="219.55" y="360" as="sourcePoint" />
            <mxPoint x="219.55" y="400" as="targetPoint" />
          </mxGeometry>
        </mxCell>
        <mxCell id="Jjhn9JfKcR0v0ImLpHDr-27" value="" style="endArrow=classic;html=1;rounded=0;" edge="1" parent="1">
          <mxGeometry width="50" height="50" relative="1" as="geometry">
            <mxPoint x="339.55" y="600" as="sourcePoint" />
            <mxPoint x="339.55" y="640" as="targetPoint" />
          </mxGeometry>
        </mxCell>
        <mxCell id="Jjhn9JfKcR0v0ImLpHDr-29" value="" style="endArrow=classic;html=1;rounded=0;" edge="1" parent="1">
          <mxGeometry width="50" height="50" relative="1" as="geometry">
            <mxPoint x="219.09" y="600" as="sourcePoint" />
            <mxPoint x="219.09" y="640" as="targetPoint" />
          </mxGeometry>
        </mxCell>
        <mxCell id="Jjhn9JfKcR0v0ImLpHDr-30" value="" style="endArrow=classic;html=1;rounded=0;" edge="1" parent="1">
          <mxGeometry width="50" height="50" relative="1" as="geometry">
            <mxPoint x="120" y="419.54999999999995" as="sourcePoint" />
            <mxPoint x="200" y="419.54999999999995" as="targetPoint" />
          </mxGeometry>
        </mxCell>
        <mxCell id="Jjhn9JfKcR0v0ImLpHDr-31" value="I2C" style="text;html=1;align=center;verticalAlign=middle;whiteSpace=wrap;rounded=0;" vertex="1" parent="1">
          <mxGeometry x="330" y="130" width="60" height="30" as="geometry" />
        </mxCell>
        <mxCell id="Jjhn9JfKcR0v0ImLpHDr-32" value="I2C" style="text;html=1;align=center;verticalAlign=middle;whiteSpace=wrap;rounded=0;" vertex="1" parent="1">
          <mxGeometry x="330" y="610" width="60" height="30" as="geometry" />
        </mxCell>
        <mxCell id="Jjhn9JfKcR0v0ImLpHDr-34" value="1 wire" style="text;html=1;align=center;verticalAlign=middle;whiteSpace=wrap;rounded=0;" vertex="1" parent="1">
          <mxGeometry x="160" y="120" width="60" height="30" as="geometry" />
        </mxCell>
        <mxCell id="Jjhn9JfKcR0v0ImLpHDr-35" value="1 wire" style="text;html=1;align=center;verticalAlign=middle;whiteSpace=wrap;rounded=0;" vertex="1" parent="1">
          <mxGeometry x="160" y="360" width="60" height="30" as="geometry" />
        </mxCell>
        <mxCell id="Jjhn9JfKcR0v0ImLpHDr-36" value="ADC" style="text;html=1;align=center;verticalAlign=middle;whiteSpace=wrap;rounded=0;" vertex="1" parent="1">
          <mxGeometry x="330" y="360" width="60" height="30" as="geometry" />
        </mxCell>
        <mxCell id="Jjhn9JfKcR0v0ImLpHDr-37" value="GAS sensor" style="rounded=0;whiteSpace=wrap;html=1;" vertex="1" parent="1">
          <mxGeometry x="320" y="320" width="40" height="40" as="geometry" />
        </mxCell>
        <mxCell id="Jjhn9JfKcR0v0ImLpHDr-39" value="ADC" style="text;html=1;align=center;verticalAlign=middle;whiteSpace=wrap;rounded=0;" vertex="1" parent="1">
          <mxGeometry x="230" y="360" width="60" height="30" as="geometry" />
        </mxCell>
        <mxCell id="Jjhn9JfKcR0v0ImLpHDr-41" value="" style="endArrow=classic;html=1;rounded=0;" edge="1" parent="1">
          <mxGeometry width="50" height="50" relative="1" as="geometry">
            <mxPoint x="279.09000000000003" y="360" as="sourcePoint" />
            <mxPoint x="279.09000000000003" y="400" as="targetPoint" />
          </mxGeometry>
        </mxCell>
        <mxCell id="Jjhn9JfKcR0v0ImLpHDr-42" value="" style="endArrow=classic;html=1;rounded=0;" edge="1" parent="1">
          <mxGeometry width="50" height="50" relative="1" as="geometry">
            <mxPoint x="339.55" y="360" as="sourcePoint" />
            <mxPoint x="339.55" y="400" as="targetPoint" />
          </mxGeometry>
        </mxCell>
        <mxCell id="Jjhn9JfKcR0v0ImLpHDr-43" value="GPIO" style="text;html=1;align=center;verticalAlign=middle;whiteSpace=wrap;rounded=0;" vertex="1" parent="1">
          <mxGeometry x="210" y="600" width="60" height="30" as="geometry" />
        </mxCell>
        <mxCell id="Jjhn9JfKcR0v0ImLpHDr-44" value="ADC" style="text;html=1;align=center;verticalAlign=middle;whiteSpace=wrap;rounded=0;" vertex="1" parent="1">
          <mxGeometry x="130" y="550" width="60" height="30" as="geometry" />
        </mxCell>
        <mxCell id="Jjhn9JfKcR0v0ImLpHDr-45" value="GPIO" style="text;html=1;align=center;verticalAlign=middle;whiteSpace=wrap;rounded=0;" vertex="1" parent="1">
          <mxGeometry x="130" y="470" width="60" height="30" as="geometry" />
        </mxCell>
        <mxCell id="Jjhn9JfKcR0v0ImLpHDr-46" value="GPIO" style="text;html=1;align=center;verticalAlign=middle;whiteSpace=wrap;rounded=0;" vertex="1" parent="1">
          <mxGeometry x="130" y="230" width="60" height="30" as="geometry" />
        </mxCell>
        <mxCell id="Jjhn9JfKcR0v0ImLpHDr-48" value="GPIO" style="text;html=1;align=center;verticalAlign=middle;whiteSpace=wrap;rounded=0;" vertex="1" parent="1">
          <mxGeometry x="130" y="390" width="60" height="30" as="geometry" />
        </mxCell>
        <mxCell id="Jjhn9JfKcR0v0ImLpHDr-49" value="GPIO" style="text;html=1;align=center;verticalAlign=middle;whiteSpace=wrap;rounded=0;" vertex="1" parent="1">
          <mxGeometry x="130" y="150" width="60" height="30" as="geometry" />
        </mxCell>
        <mxCell id="Jjhn9JfKcR0v0ImLpHDr-50" value="Webserver" style="rounded=0;whiteSpace=wrap;html=1;" vertex="1" parent="1">
          <mxGeometry x="480" y="280" width="120" height="120" as="geometry" />
        </mxCell>
        <mxCell id="Jjhn9JfKcR0v0ImLpHDr-51" value="Database" style="shape=cylinder3;whiteSpace=wrap;html=1;boundedLbl=1;backgroundOutline=1;size=15;" vertex="1" parent="1">
          <mxGeometry x="680" y="280" width="80" height="120" as="geometry" />
        </mxCell>
        <mxCell id="Jjhn9JfKcR0v0ImLpHDr-55" value="MQTT" style="text;html=1;align=center;verticalAlign=middle;resizable=0;points=[];autosize=1;strokeColor=none;fillColor=none;" vertex="1" parent="1">
          <mxGeometry x="400" y="220" width="60" height="30" as="geometry" />
        </mxCell>
        <mxCell id="Jjhn9JfKcR0v0ImLpHDr-56" value="MQTT" style="text;html=1;align=center;verticalAlign=middle;resizable=0;points=[];autosize=1;strokeColor=none;fillColor=none;" vertex="1" parent="1">
          <mxGeometry x="384" y="410" width="60" height="30" as="geometry" />
        </mxCell>
        <mxCell id="Jjhn9JfKcR0v0ImLpHDr-57" value="" style="shape=flexArrow;endArrow=classic;startArrow=classic;html=1;rounded=0;" edge="1" parent="1">
          <mxGeometry width="100" height="100" relative="1" as="geometry">
            <mxPoint x="600" y="339.33000000000004" as="sourcePoint" />
            <mxPoint x="680" y="339.33000000000004" as="targetPoint" />
          </mxGeometry>
        </mxCell>
        <mxCell id="Jjhn9JfKcR0v0ImLpHDr-59" value="" style="shape=flexArrow;endArrow=classic;startArrow=classic;html=1;rounded=0;entryX=0;entryY=0;entryDx=0;entryDy=0;" edge="1" parent="1" target="Jjhn9JfKcR0v0ImLpHDr-50">
          <mxGeometry width="100" height="100" relative="1" as="geometry">
            <mxPoint x="360" y="219.64000000000004" as="sourcePoint" />
            <mxPoint x="440" y="219.64000000000004" as="targetPoint" />
          </mxGeometry>
        </mxCell>
        <mxCell id="Jjhn9JfKcR0v0ImLpHDr-60" value="" style="shape=flexArrow;endArrow=classic;startArrow=classic;html=1;rounded=0;exitX=1;exitY=0.5;exitDx=0;exitDy=0;entryX=0;entryY=1;entryDx=0;entryDy=0;" edge="1" parent="1" source="Jjhn9JfKcR0v0ImLpHDr-2" target="Jjhn9JfKcR0v0ImLpHDr-50">
          <mxGeometry width="100" height="100" relative="1" as="geometry">
            <mxPoint x="430" y="450.00000000000006" as="sourcePoint" />
            <mxPoint x="510" y="450.00000000000006" as="targetPoint" />
          </mxGeometry>
        </mxCell>
      </root>
    </mxGraphModel>
  </diagram>
</mxfile>
